# xmcd
#
# Track frame offsets: 
#        150
#        21069
#        42143
#        62278
#        80662
#        98329
#        112653
#        140096
#        162901
#        180836
#        201743
#        222186
#        245348
#        259288
#        288034
#        305965
#        325761
#        341627
#
# Disc length: 4824 seconds
#
# Revision: 0
# Processed by: cddbd v1.5.2PL0 Copyright (c) Steve Scherf et al.
# Submitted via: ExactAudioCopy v1.3
#
DISCID=f812d612
DTITLE=Beth Hart - A Woman With A Rock And Roll Soul [Disk 1]
DYEAR=2009
DGENRE=Blues Rock
TTITLE0=Hiding Under Water
TTITLE1=Broken and Ugly
TTITLE2=Leave The Light On
TTITLE3=Beth Hart and Jesper Binzer - Wild Horses
TTITLE4=Learning To Live
TTITLE5=California Dreamin'
TTITLE6=Dog And Butterfly (Acoustic)
TTITLE7=Mama
TTITLE8=Immortal
TTITLE9=Jacky's Song
TTITLE10=L.A. Song
TTITLE11=Skin
TTITLE12=Beth Hart and Toots Thielemans - I Gotta Right To Sing The Blue
TTITLE12=s
TTITLE13=Beth Hart and Neal Schon - I Wanna Know You
TTITLE14=Beth Hart and Barry Hay - I Don't Want To Be
TTITLE15=Deep Purple and Beth Hart - Haunted
TTITLE16=Beth Hart and Born - It Hurts
TTITLE17=Soulshine
EXTD=
EXTT0=
EXTT1=
EXTT2=
EXTT3=
EXTT4=
EXTT5=
EXTT6=
EXTT7=
EXTT8=
EXTT9=
EXTT10=
EXTT11=
EXTT12=
EXTT13=
EXTT14=
EXTT15=
EXTT16=
EXTT17=
PLAYORDER=
